<?xml version="1.0" encoding="UTF-8"?>
<svg width="16px" height="16px" viewBox="0 0 16 16" version="1.1" xmlns="http://www.w3.org/2000/svg" xmlns:xlink="http://www.w3.org/1999/xlink">
    <!-- Generator: Sketch 57.1 (83088) - https://sketch.com -->
    <title>隐藏</title>
    <desc>Created with Sketch.</desc>
    <g id="四维聚象后台系统管理员权限V2.0" stroke="none" stroke-width="1" fill="none" fill-rule="evenodd">
        <g id="首页" transform="translate(-291.000000, -1207.000000)" fill="#666666">
            <g id="编组-11" transform="translate(0.000000, 1080.000000)">
                <g id="编组-5" transform="translate(30.000000, 82.000000)">
                    <path d="M272.5,60 C272.776142,60 273,60.2238576 273,60.5 C273,60.7761424 272.776142,61 272.5,61 L261.5,61 C261.223858,61 261,60.7761424 261,60.5 C261,60.2238576 261.223858,60 261.5,60 L272.5,60 Z M276.824042,48.3345017 C276.938647,48.5012 277,48.6987369 277,48.9010305 L277,56.8990295 C277,57.4513142 276.552285,57.8990295 276,57.8990295 C275.770329,57.8990295 275.547658,57.8199722 275.369407,57.6751435 L270.037408,53.342894 C269.608772,52.9946273 269.54362,52.3648233 269.891887,51.9361874 C269.952146,51.8620215 270.022726,51.7968759 270.101472,51.7427381 L275.433471,48.0769886 C275.888577,47.7641033 276.511157,47.8793959 276.824042,48.3345017 Z M276,48.9010305 L270.668001,52.56678 L276,56.8990295 L276,48.9010305 Z M267.5,52 C267.776142,52 268,52.2238576 268,52.5 C268,52.7761424 267.776142,53 267.5,53 L261.5,53 C261.223858,53 261,52.7761424 261,52.5 C261,52.2238576 261.223858,52 261.5,52 L267.5,52 Z M272.5,45 C272.776142,45 273,45.2238576 273,45.5 C273,45.7761424 272.776142,46 272.5,46 L261.5,46 C261.223858,46 261,45.7761424 261,45.5 C261,45.2238576 261.223858,45 261.5,45 L272.5,45 Z" id="隐藏"></path>
                </g>
            </g>
        </g>
    </g>
</svg>